:SAMPLES-PER-SECOND 24
:FULLY-SPECIFIED
:DEGREES
218
root  -12.9909 37.343 25.0906 8.61621 -41.8719 -5.92899
RightUpLeg  -18.2312 10.6466 -16.5321
RightLeg  25.6181 -2.02739 -1.28135
RightFoot  -11.3738 -0.0734043 14.9052
RightToes  -2.08645e-008 3.77894e-005 6.81332e-007
Spine  19.856 -1.9604 -5.32869
Spine1  2.99411 -4.95943 9.95204
HEad  -43.3273 37.6279 -19.6085
LeftShoulder1  5.49326 -11.3323 -31.023
LeftArm  20.4617 -0.246376 -40.8862
LeftForeArm  140.953 -78.7418 -124.496
LeftHand  -0.38335 -4.46099 4.80482
RightShoulder  3.44553 6.16825 29.7069
RightArm  7.19792 -26.4103 28.2414
RightForeArm  81.1352 79.7057 65.3709
RightHand  -0.437208 9.19726 -3.86354
LeftUpLeg  -17.3273 -7.04944 24.2113
LeftLeg  31.8154 8.62975 6.08421
LeftFoot  -8.54163 0.590395 -21.845
LeftToes  1.24767e-006 1.47042e-008 1.32732e-009
219
root  -11.862 36.6432 25.8656 7.55164 -40.8639 -5.5972
RightUpLeg  -17.4052 8.43336 -19.1247
RightLeg  26.326 -0.352452 -0.423427
RightFoot  -12.8062 0.134824 17.5709
RightToes  -2.08645e-008 3.77894e-005 6.81332e-007
Spine  18.6005 -1.8401 -3.6186
Spine1  5.94555 -4.29293 7.41802
HEad  -44.7863 34.3371 -20.0857
LeftShoulder1  6.16997 -12.1001 -33.5381
LeftArm  19.3575 -1.13696 -39.3489
LeftForeArm  106.69 -80.7359 -88.3472
LeftHand  -0.514498 -4.33416 6.42705
RightShoulder  3.3134 5.95687 29.0937
RightArm  2.58129 -21.4126 28.9115
RightForeArm  70.6957 78.5042 53.7354
RightHand  -0.715694 8.05876 -6.53648
LeftUpLeg  -19.1504 -7.36106 22.0256
LeftLeg  36.8973 7.7983 6.63266
LeftFoot  -15.7127 -0.807144 -23.7391
LeftToes  1.24767e-006 1.47042e-008 1.32732e-009
220
root  -10.6578 36.6567 26.7374 6.81256 -40.4499 -4.72766
RightUpLeg  -15.5933 9.73664 -22.1778
RightLeg  22.5318 -1.79038 -0.967476
RightFoot  -9.24079 -0.451719 19.9963
RightToes  -2.08645e-008 3.77894e-005 6.81332e-007
Spine  17.076 -1.04395 -2.45551
Spine1  7.59003 -2.9975 5.72981
HEad  -44.9511 31.2528 -19.9832
LeftShoulder1  6.83017 -12.7915 -35.8727
LeftArm  16.3082 2.45878 -38.4846
LeftForeArm  86.0755 -79.9618 -64.2497
LeftHand  -0.542455 -3.98522 6.9868
RightShoulder  3.28783 5.8411 29.2586
RightArm  -0.125012 -21.4905 29.0359
RightForeArm  73.7218 79.0158 58.8418
RightHand  -0.783252 6.78894 -7.78668
LeftUpLeg  -20.3934 -9.51359 18.4822
LeftLeg  39.2685 9.73494 8.79647
LeftFoot  -17.6469 -1.02935 -20.3151
LeftToes  1.24767e-006 1.47042e-008 1.32732e-009
221
root  -9.57015 37.2914 27.5562 7.4054 -41.2656 -4.79681
RightUpLeg  -14.1892 10.8733 -23.0946
RightLeg  16.6995 -6.64262 -2.77988
RightFoot  -0.460185 -1.75133 18.2611
RightToes  -2.08645e-008 3.77894e-005 6.81332e-007
Spine  15.937 -0.0314319 -0.88566
Spine1  6.90988 -1.31584 4.48154
HEad  -43.6274 30.2804 -19.8089
LeftShoulder1  7.0025 -12.9227 -36.5753
LeftArm  13.7298 11.2761 -35.9906
LeftForeArm  93.7832 -80.4413 -74.5057
LeftHand  -0.522824 -3.69749 6.94002
RightShoulder  3.39092 5.94178 29.9897
RightArm  2.21327 -23.8222 29.4496
RightForeArm  84.5524 79.9879 71.0677
RightHand  -0.601913 6.88469 -6.03444
LeftUpLeg  -19.6788 -8.52828 16.033
LeftLeg  36.9206 10.0633 8.36794
LeftFoot  -16.3235 -0.703267 -18.2985
LeftToes  1.24767e-006 1.47042e-008 1.32732e-009
222
root  -8.75567 38.2707 28.2125 8.36224 -40.5697 -5.30725
RightUpLeg  -11.9907 0.181702 -19.5252
RightLeg  12.2516 -4.49219 -4.44103
RightFoot  6.66605 -1.9074 12.2855
RightToes  -2.08645e-008 3.77894e-005 6.81332e-007
Spine  13.9845 0.530086 -0.132367
Spine1  6.72571 -0.756287 5.2577
HEad  -41.672 30.3752 -19.5067
LeftShoulder1  6.59963 -12.472 -35.2848
LeftArm  13.289 20.2236 -32.4936
LeftForeArm  105.499 -80.4998 -92.5188
LeftHand  -0.472543 -3.5837 6.37084
RightShoulder  3.41403 6.00383 29.9988
RightArm  6.67428 -26.1121 31.7569
RightForeArm  94.435 80.4403 79.0461
RightHand  -0.632076 7.33009 -6.11283
LeftUpLeg  -17.56 -4.63679 14.7656
LeftLeg  30.1834 7.50379 5.04132
LeftFoot  -13.6414 -0.243858 -16.1046
LeftToes  1.24767e-006 1.47042e-008 1.32732e-009
223
root  -8.16752 39.216 28.623 8.87262 -37.9255 -5.26004
RightUpLeg  -10.3973 -3.87042 -17.2165
RightLeg  14.6219 -7.14907 -3.86103
RightFoot  6.27839 -1.31428 8.74048
RightToes  -2.08645e-008 3.77894e-005 6.81332e-007
Spine  11.8637 0.451831 0.102447
Spine1  6.60682 -0.963792 5.94021
HEad  -40.1201 29.6293 -19.1361
LeftShoulder1  5.88142 -11.6736 -32.7497
LeftArm  13.7897 27.144 -28.6715
LeftForeArm  110.944 -80.2464 -100.37
LeftHand  -0.390892 -3.83906 5.18506
RightShoulder  3.47782 6.10038 30.3065
RightArm  10.665 -28.6789 34.1732
RightForeArm  109.417 80.761 90.7228
RightHand  -0.151901 9.17904 -1.6014
LeftUpLeg  -15.7796 -2.42308 13.6917
LeftLeg  22.7251 4.27752 2.27076
LeftFoot  -9.1076 0.320803 -13.5399
LeftToes  1.24767e-006 1.47042e-008 1.32732e-009
224
root  -7.78161 39.8831 28.7613 10.4012 -37.2996 -6.0015
RightUpLeg  -11.4563 -2.85653 -13.453
RightLeg  21.79 -8.1579 -3.65537
RightFoot  2.9157 -1.11718 9.08794
RightToes  -2.08645e-008 3.77894e-005 6.81332e-007
Spine  8.6543 1.18567 1.0375
Spine1  7.55616 0.201269 4.19912
HEad  -39.7091 27.9915 -19.5433
LeftShoulder1  5.16532 -10.8174 -30.0569
LeftArm  13.6467 31.5964 -24.6376
LeftForeArm  111.369 -80.2617 -100.425
LeftHand  -0.326025 -4.00823 4.29877
RightShoulder  3.53464 6.15936 30.6802
RightArm  14.0252 -29.8862 35.5265
RightForeArm  125.783 80.6007 104.393
RightHand  0.262737 10.4471 1.50917
LeftUpLeg  -14.8711 0.122545 13.4654
LeftLeg  17.3333 2.17515 1.23261
LeftFoot  -4.76975 0.753553 -12.5456
LeftToes  1.24767e-006 1.47042e-008 1.32732e-009
225
root  -7.27556 40.1791 28.8533 9.46991 -35.7831 -5.40683
RightUpLeg  -11.2726 -6.08954 -10.2171
RightLeg  29.7051 -4.92054 -3.23029
RightFoot  0.161348 -0.995229 9.86092
RightToes  -2.08645e-008 3.77894e-005 6.81332e-007
Spine  8.47796 1.40066 1.48518
Spine1  7.29812 0.796548 2.74679
HEad  -39.1517 26.2323 -19.6467
LeftShoulder1  4.62076 -10.1313 -27.8244
LeftArm  12.3033 33.4233 -21.0572
LeftForeArm  102.662 -80.3588 -92.671
LeftHand  -0.315508 -3.74594 4.27367
RightShoulder  3.47304 6.07229 30.3647
RightArm  16.7724 -28.7373 35.7772
RightForeArm  134.158 80.24 111.916
RightHand  0.213495 10.5206 1.13411
LeftUpLeg  -13.5977 1.24428 11.891
LeftLeg  14.1187 0.10848 0.960702
LeftFoot  -2.66519 0.885687 -11.4564
LeftToes  1.24767e-006 1.47042e-008 1.32732e-009
226
root  -6.69357 40.0678 28.9423 6.93536 -32.7749 -3.52368
RightUpLeg  -9.65626 -9.91124 -8.63761
RightLeg  36.3474 -4.08468 -3.4832
RightFoot  -3.12922 -0.80621 10.9015
RightToes  -2.08645e-008 3.77894e-005 6.81332e-007
Spine  9.77123 0.850007 0.906525
Spine1  6.21764 0.382841 2.21259
HEad  -38.0454 24.5813 -18.9968
LeftShoulder1  4.20458 -9.53516 -26.1278
LeftArm  9.62882 33.3971 -18.2668
LeftForeArm  92.3677 -80.2406 -83.9989
LeftHand  -0.315561 -3.62039 4.32493
RightShoulder  3.34484 5.93354 29.5236
RightArm  18.1064 -26.4918 35.3219
RightForeArm  135.086 79.948 114.702
RightHand  0.248642 10.0542 1.45192
LeftUpLeg  -13.0867 -1.09784 9.46397
LeftLeg  13.7076 -0.525879 0.800675
LeftFoot  -3.10592 0.741993 -10.0311
LeftToes  1.24767e-006 1.47042e-008 1.32732e-009
227
root  -6.21463 39.6297 28.9503 5.14984 -31.1921 -1.58304
RightUpLeg  -8.2372 -11.6754 -7.11116
RightLeg  38.8441 -8.80211 -7.75708
RightFoot  -7.52166 -0.478365 12.835
RightToes  -2.08645e-008 3.77894e-005 6.81332e-007
Spine  9.49337 1.07472 -0.372216
Spine1  6.45697 0.709535 1.54803
HEad  -37.6607 22.6687 -18.9333
LeftShoulder1  4.14943 -9.28251 -26.3429
LeftArm  5.62441 30.9395 -14.8133
LeftForeArm  84.3361 -79.9886 -77.427
LeftHand  -0.336325 -3.52196 4.63578
RightShoulder  3.23351 5.81794 28.7508
RightArm  17.0577 -23.848 34.5541
RightForeArm  125.271 80.3157 107.151
RightHand  0.169133 9.88179 0.873999
LeftUpLeg  -14.383 -5.33972 7.31609
LeftLeg  16.5631 2.16502 1.25772
LeftFoot  -5.43406 0.514079 -9.3182
LeftToes  1.24767e-006 1.47042e-008 1.32732e-009
228
root  -5.7184 39.1367 28.8974 3.55164 -29.8421 0.143463
RightUpLeg  -5.56197 -13.57 -6.15757
RightLeg  35.9759 -18.9689 -14.342
RightFoot  -12.0222 -0.0086214 13.3337
RightToes  -2.08645e-008 3.77894e-005 6.81332e-007
Spine  8.74353 1.52722 -0.505377
Spine1  8.14858 1.54915 0.221237
HEad  -38.297 20.1835 -19.1283
LeftShoulder1  4.67668 -9.88457 -28.8804
LeftArm  -0.442806 25.0865 -11.6092
LeftForeArm  66.3625 -78.7555 -61.3718
LeftHand  -0.495833 -2.52523 7.5096
RightShoulder  3.19534 5.7315 28.6608
RightArm  13.2608 -20.4417 34.1265
RightForeArm  93.2695 80.3548 74.9106
RightHand  -0.0789465 9.70209 -1.0082
LeftUpLeg  -16.3866 -8.82266 5.12663
LeftLeg  20.7406 4.4551 2.16927
LeftFoot  -7.64463 0.311938 -8.1965
LeftToes  1.24767e-006 1.47042e-008 1.32732e-009
229
root  -5.22898 38.91 28.8289 2.26813 -30.4264 1.30405
RightUpLeg  -3.12068 -11.3478 -6.00969
RightLeg  31.8397 -28.1184 -17.6759
RightFoot  -13.9557 0.123777 9.70076
RightToes  -2.08645e-008 3.77894e-005 6.81332e-007
Spine  7.78024 2.42651 1.04189
Spine1  10.4008 3.37101 -2.54214
HEad  -38.7946 18.3186 -18.9557
LeftShoulder1  5.42496 -10.8824 -31.705
LeftArm  -8.23503 19.7633 -12.0876
LeftForeArm  48.4235 -76.2347 -46.1432
LeftHand  -0.747163 -0.949789 13.8067
RightShoulder  3.25486 5.74919 29.2525
RightArm  9.0177 -17.3646 33.5082
RightForeArm  66.6962 77.3693 46.2209
RightHand  -0.490222 8.60792 -4.45319
LeftUpLeg  -17.036 -8.16852 3.23571
LeftLeg  22.7533 4.50078 2.40121
LeftFoot  -8.25332 0.226022 -6.54634
LeftToes  1.24767e-006 1.47042e-008 1.32732e-009
230
root  -4.74592 39.0615 28.7374 2.4613 -32.6939 1.61392
RightUpLeg  -3.39637 -6.34535 -6.21378
RightLeg  29.8356 -29.2158 -17.0113
RightFoot  -13.0908 -0.00947671 5.19412
RightToes  -2.08645e-008 3.77894e-005 6.81332e-007
Spine  7.09219 2.80189 3.33459
Spine1  10.1979 4.66752 -5.72578
HEad  -38.6638 18.9747 -19.2961
LeftShoulder1  5.65959 -11.1492 -32.6297
LeftArm  -15.6481 20.6677 -17.4626
LeftForeArm  47.1049 -76.4808 -48.2117
LeftHand  -0.814384 0.303851 18.5983
RightShoulder  3.35174 5.88913 29.7703
RightArm  7.67251 -16.2811 32.2498
RightForeArm  66.6954 77.2169 44.9488
RightHand  -0.254853 8.2134 -2.54847
LeftUpLeg  -16.7051 -5.86913 2.40313
LeftLeg  20.8568 4.61976 2.2736
LeftFoot  -6.92734 0.259274 -5.64944
LeftToes  1.24767e-006 1.47042e-008 1.32732e-009
231
root  -4.36989 39.4199 28.631 3.92163 -35.2567 1.35229
RightUpLeg  -4.96373 -5.00056 -6.83139
RightLeg  27.0545 -24.2325 -13.0317
RightFoot  -13.1056 -0.0396951 3.22754
RightToes  -2.08645e-008 3.77894e-005 6.81332e-007
Spine  6.45111 2.64721 4.19655
Spine1  7.80123 4.55757 -6.77844
HEad  -37.8975 21.4297 -20.0498
LeftShoulder1  5.55783 -10.9321 -32.5055
LeftArm  -19.9874 26.5945 -24.7335
LeftForeArm  65.9635 -79.0435 -69.3165
LeftHand  -0.719425 0.726618 17.8949
RightShoulder  3.24814 5.79188 29.0119
RightArm  9.01513 -17.0793 31.7156
RightForeArm  88.6232 80.1261 68.056
RightHand  -0.131648 8.81538 -1.46035
LeftUpLeg  -15.8565 -3.9845 2.29225
LeftLeg  16.1071 5.66782 2.38445
LeftFoot  -4.78885 0.369633 -5.93721
LeftToes  1.24767e-006 1.47042e-008 1.32732e-009
232
root  -4.17122 39.7862 28.4431 5.90491 -37.3493 0.392151
RightUpLeg  -5.76585 -7.41144 -6.21865
RightLeg  23.5969 -20.6646 -9.76693
RightFoot  -14.8036 -0.0285899 2.41855
RightToes  -2.08645e-008 3.77894e-005 6.81332e-007
Spine  4.67809 2.18725 4.65103
Spine1  6.61529 3.93927 -6.94741
HEad  -37.0063 24.0264 -19.2984
LeftShoulder1  5.41535 -10.7597 -31.9726
LeftArm  -20.0713 31.8786 -30.6023
LeftForeArm  91.7851 -79.7791 -94.1234
LeftHand  -0.664677 0.438957 15.6206
RightShoulder  3.1708 5.71772 28.44
RightArm  10.3218 -17.6555 31.9828
RightForeArm  117.128 80.6259 99.1202
RightHand  -0.179146 8.8239 -1.84796
LeftUpLeg  -14.8304 -1.35471 2.9065
LeftLeg  10.9179 5.9939 2.3454
LeftFoot  -3.58252 0.544325 -7.69823
LeftToes  1.24767e-006 1.47042e-008 1.32732e-009
